<svg version="1.1" id="Layer_1" xmlns="http://www.w3.org/2000/svg" xmlns:xlink="http://www.w3.org/1999/xlink" x="0px" y="0px"
	 width="100%" viewBox="0 0 217 217" enable-background="new 0 0 217 217" xml:space="preserve">
<path fill="#000000" opacity="1.000000" stroke="none" 
	d="
M218.000000,55.000000 
	C218.000000,109.666664 218.000000,163.833328 218.000000,218.000000 
	C145.666672,218.000000 73.333336,218.000000 1.000000,218.000000 
	C1.000000,145.666672 1.000000,73.333336 1.000000,1.000000 
	C73.333336,1.000000 145.666672,1.000000 218.000000,1.000000 
	C218.000000,18.833334 218.000000,36.666668 218.000000,55.000000 
M63.021214,126.008667 
	C67.841942,126.005775 72.666420,126.118950 77.482208,125.963326 
	C81.342506,125.838570 85.192261,125.387558 89.660500,124.808510 
	C100.872192,113.607956 112.083878,102.407402 123.295570,91.206848 
	C123.083168,90.748901 122.870758,90.290962 122.658356,89.833015 
	C102.433777,89.833015 82.209206,89.833015 61.997414,88.922935 
	C62.088314,77.932526 62.179214,66.942116 62.514744,56.039349 
	C62.514744,56.039349 62.764153,55.966412 63.751823,55.990788 
	C93.797447,55.993805 123.843094,56.012218 153.888611,55.959602 
	C155.596313,55.956612 157.303009,55.371826 159.601852,54.742943 
	C174.090790,40.177486 188.579727,25.612030 203.794998,10.679534 
	C202.416107,10.119848 201.040192,9.081671 199.657852,9.073041 
	C182.023407,8.962951 164.388046,8.989069 146.752930,9.002656 
	C102.833397,9.036492 58.913872,9.081699 14.145516,9.359519 
	C14.097514,36.185394 14.049512,63.011272 13.139813,89.978386 
	C12.427043,90.974480 11.110558,91.961235 11.094966,92.968124 
	C10.940454,102.945908 11.081038,112.928139 10.943268,122.906418 
	C10.910119,125.307327 11.715187,126.261551 13.999661,127.074844 
	C13.999640,146.183838 13.999602,165.292847 13.999611,184.401840 
	C13.999613,188.555969 13.939692,192.712204 14.084694,196.861252 
	C14.100738,197.320312 15.287740,197.738449 16.525002,197.829071 
	C30.617315,183.783951 44.724213,169.753357 58.771042,155.662903 
	C59.770657,154.660187 60.329334,153.217911 61.821777,151.527924 
	C61.913567,143.037201 62.005356,134.546494 63.021214,126.008667 
M160.973816,171.001358 
	C151.410797,171.001465 141.847382,170.959351 132.285141,171.045929 
	C130.802063,171.059357 129.324341,171.661591 127.228386,172.222321 
	C115.896149,183.545456 104.563919,194.868591 92.704712,206.718262 
	C133.291428,206.718262 172.915070,206.718262 212.731445,206.718262 
	C212.731445,195.031418 212.731445,183.640488 212.731445,172.241196 
	C211.318054,172.071365 210.166367,171.932968 209.024033,170.890442 
	C209.046967,129.594101 209.069901,88.297768 209.866959,46.604515 
	C209.911484,36.971260 209.989990,27.337763 209.920807,17.705328 
	C209.916397,17.091032 208.766205,16.484964 207.829315,16.485907 
	C207.037476,17.338644 206.272217,18.217974 205.449997,19.040337 
	C144.390533,80.108734 83.327766,141.173813 22.252989,202.226898 
	C21.202677,203.276840 20.003054,204.177444 18.173370,205.523407 
	C19.451689,206.015900 20.728001,206.931412 22.008623,206.937469 
	C41.317528,207.028946 60.627052,207.018707 79.936226,206.962509 
	C81.283821,206.958588 82.629822,206.405899 84.568092,205.783279 
	C106.256813,184.143967 127.956604,162.515747 149.623993,140.855103 
	C153.502182,136.978119 157.246353,132.967087 161.733002,129.527649 
	C161.785263,143.351074 161.837524,157.174500 160.973816,171.001358 
z"/>
<path fill="#004359" opacity="1.000000" stroke="none" 
	d="
M161.052399,129.017944 
	C157.246353,132.967087 153.502182,136.978119 149.623993,140.855103 
	C127.956604,162.515747 106.256813,184.143967 83.805267,205.899536 
	C63.361427,206.010178 43.680336,206.025497 23.999498,205.962006 
	C22.289843,205.956497 20.581860,205.431458 18.873096,205.147736 
	C20.003054,204.177444 21.202677,203.276840 22.252989,202.226898 
	C83.327766,141.173813 144.390533,80.108734 205.449997,19.040337 
	C206.272217,18.217974 207.037476,17.338644 208.324402,16.454887 
	C208.910614,26.616390 209.001724,36.808910 209.092834,47.001434 
	C209.069901,88.297768 209.046967,129.594101 209.093140,171.452057 
	C209.162231,172.013672 209.085571,172.266434 208.622528,172.154663 
	C193.138184,171.907578 178.116867,171.772247 163.074615,171.191467 
	C163.034851,158.097107 163.070969,145.447525 162.912506,132.800369 
	C162.896606,131.531982 161.700668,130.278397 161.052399,129.017944 
z"/>
<path fill="#004359" opacity="1.000000" stroke="none" 
	d="
M62.764153,55.966412 
	C62.764153,55.966412 62.514744,56.039349 61.986771,56.181526 
	C61.300564,67.507912 61.142326,78.692123 60.518085,89.913567 
	C45.140064,89.962090 30.228050,89.973381 15.241553,89.911896 
	C15.167072,89.839111 14.959721,89.858696 14.976191,89.402283 
	C15.033432,62.676704 15.074203,36.407528 15.573933,10.087479 
	C76.844978,10.024400 137.657059,10.004533 198.469116,10.043830 
	C200.002518,10.044822 201.535492,10.697714 203.068665,11.046574 
	C188.579727,25.612030 174.090790,40.177486 158.837219,54.882576 
	C128.225082,55.015079 98.377541,54.990101 68.530136,55.042282 
	C66.607613,55.045643 64.686119,55.644547 62.764153,55.966412 
z"/>
<path fill="#004359" opacity="1.000000" stroke="none" 
	d="
M61.093033,151.980011 
	C60.329334,153.217911 59.770657,154.660187 58.771042,155.662903 
	C44.724213,169.753357 30.617315,183.783951 15.874413,197.731628 
	C15.149401,195.819473 15.012801,194.004822 15.010018,192.189987 
	C14.976239,170.165710 14.962171,148.141373 15.047850,126.119049 
	C15.152719,126.121040 15.294364,125.966309 15.738735,125.964302 
	C31.070219,125.959564 45.957329,125.956833 60.901535,126.422577 
	C61.003433,135.254044 61.048237,143.617020 61.093033,151.980011 
z"/>
<path fill="#1B9BA5" opacity="1.000000" stroke="none" 
	d="
M209.088455,171.904129 
	C210.166367,171.932968 211.318054,172.071365 212.731445,172.241196 
	C212.731445,183.640488 212.731445,195.031418 212.731445,206.718262 
	C172.915070,206.718262 133.291428,206.718262 92.704712,206.718262 
	C104.563919,194.868591 115.896149,183.545456 128.012589,172.157837 
	C139.864990,171.988876 150.933212,171.884430 162.092789,171.841751 
	C162.184158,171.903519 162.336960,172.062607 162.255447,172.523941 
	C162.120972,182.301453 162.176468,191.620117 161.964447,200.932663 
	C161.873016,204.947952 163.673203,206.100739 167.394394,206.061798 
	C179.540054,205.934631 191.688995,205.920227 203.834229,206.065887 
	C207.765533,206.113022 209.100983,204.524155 209.049377,200.718536 
	C208.920776,191.236404 209.056168,181.750702 209.085571,172.266434 
	C209.085571,172.266434 209.162231,172.013672 209.088455,171.904129 
z"/>
<path fill="#1A9AA4" opacity="1.000000" stroke="none" 
	d="
M61.984631,89.833015 
	C82.209206,89.833015 102.433777,89.833015 122.658356,89.833015 
	C122.870758,90.290962 123.083168,90.748901 123.295570,91.206848 
	C112.083878,102.407402 100.872192,113.607956 88.884041,124.922226 
	C79.385254,125.083443 70.662926,125.130943 61.931274,125.094040 
	C61.921959,125.009636 61.982540,124.850975 61.977837,124.393021 
	C61.965790,112.621986 61.958443,101.308907 61.923271,89.947662 
	C61.895443,89.899498 61.984631,89.833015 61.984631,89.833015 
z"/>
<path fill="#7FA1AC" opacity="1.000000" stroke="none" 
	d="
M203.431824,10.863053 
	C201.535492,10.697714 200.002518,10.044822 198.469116,10.043830 
	C137.657059,10.004533 76.844978,10.024400 15.542217,9.833660 
	C15.032476,9.461259 15.013409,9.291800 14.994341,9.122341 
	C58.913872,9.081699 102.833397,9.036492 146.752930,9.002656 
	C164.388046,8.989069 182.023407,8.962951 199.657852,9.073041 
	C201.040192,9.081671 202.416107,10.119848 203.431824,10.863053 
z"/>
<path fill="#1999A3" opacity="1.000000" stroke="none" 
	d="
M14.000270,126.162209 
	C11.715187,126.261551 10.910119,125.307327 10.943268,122.906418 
	C11.081038,112.928139 10.940454,102.945908 11.094966,92.968124 
	C11.110558,91.961235 12.427043,90.974480 13.809485,89.945801 
	C14.479157,89.913223 14.959721,89.858696 14.959721,89.858696 
	C14.959721,89.858696 15.167072,89.839111 15.165422,90.372513 
	C15.207304,102.592712 15.250834,114.279510 15.294364,125.966309 
	C15.294364,125.966309 15.152719,126.121040 14.810718,126.102783 
	C14.468716,126.084534 14.000270,126.162209 14.000270,126.162209 
z"/>
<path fill="#3F7182" opacity="1.000000" stroke="none" 
	d="
M63.257988,55.978600 
	C64.686119,55.644547 66.607613,55.045643 68.530136,55.042282 
	C98.377541,54.990101 128.225082,55.015079 158.541382,55.040012 
	C157.303009,55.371826 155.596313,55.956612 153.888611,55.959602 
	C123.843094,56.012218 93.797447,55.993805 63.257988,55.978600 
z"/>
<path fill="#BFD0D5" opacity="1.000000" stroke="none" 
	d="
M14.976191,89.402283 
	C14.959721,89.858696 14.479157,89.913223 14.240334,89.875183 
	C14.049512,63.011272 14.097514,36.185394 14.569929,9.240931 
	C15.013409,9.291800 15.032476,9.461259 15.083260,9.884537 
	C15.074203,36.407528 15.033432,62.676704 14.976191,89.402283 
z"/>
<path fill="#BFD0D5" opacity="1.000000" stroke="none" 
	d="
M13.999966,126.618530 
	C14.000270,126.162209 14.468716,126.084534 14.705848,126.100800 
	C14.962171,148.141373 14.976239,170.165710 15.010018,192.189987 
	C15.012801,194.004822 15.149401,195.819473 15.577748,197.904877 
	C15.287740,197.738449 14.100738,197.320312 14.084694,196.861252 
	C13.939692,192.712204 13.999613,188.555969 13.999611,184.401840 
	C13.999602,165.292847 13.999640,146.183838 13.999966,126.618530 
z"/>
<path fill="#BFD0D5" opacity="1.000000" stroke="none" 
	d="
M18.523235,205.335571 
	C20.581860,205.431458 22.289843,205.956497 23.999498,205.962006 
	C43.680336,206.025497 63.361427,206.010178 83.509506,206.062103 
	C82.629822,206.405899 81.283821,206.958588 79.936226,206.962509 
	C60.627052,207.018707 41.317528,207.028946 22.008623,206.937469 
	C20.728001,206.931412 19.451689,206.015900 18.523235,205.335571 
z"/>
<path fill="#3F7182" opacity="1.000000" stroke="none" 
	d="
M161.392700,129.272797 
	C161.700668,130.278397 162.896606,131.531982 162.912506,132.800369 
	C163.070969,145.447525 163.034851,158.097107 162.885956,171.300568 
	C162.718262,171.855103 162.336960,172.062607 162.336960,172.062607 
	C162.336960,172.062607 162.184158,171.903519 162.050659,171.648682 
	C161.917160,171.393829 161.889786,170.997925 161.889786,170.997925 
	C161.837524,157.174500 161.785263,143.351074 161.392700,129.272797 
z"/>
<path fill="#C7E7E9" opacity="1.000000" stroke="none" 
	d="
M161.431793,170.999634 
	C161.889786,170.997925 161.917160,171.393829 161.959290,171.586914 
	C150.933212,171.884430 139.864990,171.988876 128.320465,172.042450 
	C129.324341,171.661591 130.802063,171.059357 132.285141,171.045929 
	C141.847382,170.959351 151.410797,171.001465 161.431793,170.999634 
z"/>
<path fill="#7FA1AC" opacity="1.000000" stroke="none" 
	d="
M60.984089,89.876335 
	C61.142326,78.692123 61.300564,67.507912 61.864460,56.137703 
	C62.179214,66.942116 62.088314,77.932526 61.991020,89.377975 
	C61.984631,89.833015 61.895443,89.899498 61.679359,89.935242 
	C61.463276,89.970993 60.984089,89.876335 60.984089,89.876335 
z"/>
<path fill="#BFD0D5" opacity="1.000000" stroke="none" 
	d="
M209.479889,46.802975 
	C209.001724,36.808910 208.910614,26.616390 208.484253,16.149467 
	C208.766205,16.484964 209.916397,17.091032 209.920807,17.705328 
	C209.989990,27.337763 209.911484,36.971260 209.479889,46.802975 
z"/>
<path fill="#53B3BB" opacity="1.000000" stroke="none" 
	d="
M61.940594,125.178436 
	C70.662926,125.130943 79.385254,125.083443 88.577141,125.058640 
	C85.192261,125.387558 81.342506,125.838570 77.482208,125.963326 
	C72.666420,126.118950 67.841942,126.005775 62.519100,125.813248 
	C62.016987,125.617821 61.940594,125.178444 61.940594,125.178436 
z"/>
<path fill="#7FA1AC" opacity="1.000000" stroke="none" 
	d="
M61.931274,125.094040 
	C61.940594,125.178444 62.016987,125.617821 62.057068,125.836792 
	C62.005356,134.546494 61.913567,143.037201 61.457405,151.753967 
	C61.048237,143.617020 61.003433,135.254044 61.045471,126.194809 
	C61.415722,125.282700 61.699127,125.066833 61.982536,124.850967 
	C61.982540,124.850975 61.921959,125.009636 61.931274,125.094040 
z"/>
<path fill="#008996" opacity="1.000000" stroke="none" 
	d="
M162.255447,172.523941 
	C162.336960,172.062607 162.718262,171.855103 162.906906,171.746017 
	C178.116867,171.772247 193.138184,171.907578 208.622528,172.154663 
	C209.056168,181.750702 208.920776,191.236404 209.049377,200.718536 
	C209.100983,204.524155 207.765533,206.113022 203.834229,206.065887 
	C191.688995,205.920227 179.540054,205.934631 167.394394,206.061798 
	C163.673203,206.100739 161.873016,204.947952 161.964447,200.932663 
	C162.176468,191.620117 162.120972,182.301453 162.255447,172.523941 
z"/>
<path fill="#008996" opacity="1.000000" stroke="none" 
	d="
M61.977837,124.393021 
	C61.699127,125.066833 61.415722,125.282700 60.988377,125.726334 
	C45.957329,125.956833 31.070219,125.959564 15.738735,125.964302 
	C15.250834,114.279510 15.207304,102.592712 15.239904,90.445297 
	C30.228050,89.973381 45.140064,89.962090 60.518085,89.913567 
	C60.984089,89.876335 61.463276,89.970993 61.707188,89.983406 
	C61.958443,101.308907 61.965790,112.621986 61.977837,124.393021 
z"/>
</svg>